<?xml version="1.0" encoding="UTF-8" standalone="no"?><!-- Generator: Gravit.io --><svg xmlns="http://www.w3.org/2000/svg" xmlns:xlink="http://www.w3.org/1999/xlink" style="isolation:isolate" viewBox="0 0 52 52" width="52pt" height="52pt"><defs><clipPath id="_clipPath_GJqpDlVbY5qpRaH85aLvI6v8vzMJ86GY"><rect width="52" height="52"/></clipPath></defs><g clip-path="url(#_clipPath_GJqpDlVbY5qpRaH85aLvI6v8vzMJ86GY)"><path d=" M 15 5 L 8 9 L 19 9 L 23 5 L 15 5 Z " fill="rgb(255,255,255)" vector-effect="non-scaling-stroke" stroke-width="1" stroke="rgb(0,0,0)" stroke-linejoin="miter" stroke-linecap="square" stroke-miterlimit="3"/><path d=" M 19 9 L 19 19 L 8 19 L 8 9" fill="none" vector-effect="non-scaling-stroke" stroke-width="1" stroke="rgb(0,0,0)" stroke-linejoin="miter" stroke-linecap="square" stroke-miterlimit="3"/><path d=" M 24 5 L 24 16 L 19 19" fill="none" vector-effect="non-scaling-stroke" stroke-width="1" stroke="rgb(0,0,0)" stroke-linejoin="miter" stroke-linecap="square" stroke-miterlimit="3"/><path d=" M 35 25 L 28 29 L 39 29 L 43 25 L 35 25 Z " fill="rgb(74,134,232)" vector-effect="non-scaling-stroke" stroke-width="1" stroke="rgb(0,0,0)" stroke-linejoin="miter" stroke-linecap="square" stroke-miterlimit="3"/><path d=" M 39 29 L 39 39 L 28 39 L 28 29" fill="rgb(74,134,232)" vector-effect="non-scaling-stroke" stroke-width="1" stroke="rgb(0,0,0)" stroke-linejoin="miter" stroke-linecap="square" stroke-miterlimit="3"/><path d=" M 44 25 L 44 36 L 39 39" fill="rgb(74,134,232)" vector-effect="non-scaling-stroke" stroke-width="1" stroke="rgb(0,0,0)" stroke-linejoin="miter" stroke-linecap="square" stroke-miterlimit="3"/><line x1="23" y1="21" x2="23" y2="29" vector-effect="non-scaling-stroke" stroke-width="1" stroke="rgb(0,0,0)" stroke-linejoin="miter" stroke-linecap="square" stroke-miterlimit="3"/><line x1="19" y1="25" x2="27" y2="25" vector-effect="non-scaling-stroke" stroke-width="1" stroke="rgb(0,0,0)" stroke-linejoin="miter" stroke-linecap="square" stroke-miterlimit="3"/></g></svg>